<svg id="Ebene_1" data-name="Ebene 1" xmlns="http://www.w3.org/2000/svg" viewBox="0 0 674.4 265.68"><defs><style>.cls-1{fill:#ff7800;}.cls-1,.cls-11{fill-rule:evenodd;}.cls-2{font-size:11.88px;}.cls-2,.cls-5{font-family:RobotoMono-Regular, Roboto Mono;}.cls-3{letter-spacing:-0.01em;}.cls-4{letter-spacing:-0.01em;}.cls-5{font-size:9.36px;}.cls-6{letter-spacing:0.01em;}.cls-7{letter-spacing:0.01em;}.cls-8{letter-spacing:-0.01em;}.cls-9{letter-spacing:0.01em;}.cls-10{letter-spacing:0em;}.cls-12{fill:#fe7a05;}.cls-13{fill:#fefefe;}</style></defs><title>wochenplan</title><path class="cls-1" d="M541.32,243.12H674.4v22.2H541.32Zm-133-38.76H541.44v22.2H408.36Zm-133-38.76H408.48v22.2H275.4Zm0-38.76H408.48V149H275.4Zm-133-38.76H275.52v22.2H142.44Zm0-38.76H275.52v22.2H142.44Z"/><text class="cls-2" transform="translate(166.56 22.32)">|<tspan class="cls-3" x="7.13" y="0"> </tspan><tspan x="14.14" y="0">M</tspan><tspan class="cls-4" x="21.27" y="0">a</tspan><tspan x="28.28" y="0">nn</tspan><tspan class="cls-3" x="42.54" y="0">h</tspan><tspan x="49.55" y="0">e</tspan><tspan class="cls-4" x="56.67" y="0">i</tspan><tspan x="63.68" y="0">m |</tspan></text><text class="cls-5" transform="translate(170.56 36.84)">C<tspan class="cls-6" x="5.62" y="0">o</tspan><tspan x="11.32" y="0">bli</tspan><tspan class="cls-7" x="28.17" y="0">t</tspan><tspan x="33.87" y="0">zal</tspan><tspan class="cls-6" x="50.72" y="0">l</tspan><tspan x="56.42" y="0">ee 1</tspan></text><text class="cls-2" transform="translate(299.52 22.32)">|<tspan class="cls-3" x="7.13" y="0"> </tspan><tspan x="14.14" y="0">W</tspan><tspan class="cls-4" x="21.27" y="0">e</tspan><tspan x="28.28" y="0">in</tspan><tspan class="cls-3" x="42.54" y="0">h</tspan><tspan x="49.55" y="0">e</tspan><tspan class="cls-4" x="56.67" y="0">i</tspan><tspan x="63.68" y="0">m |</tspan></text><text class="cls-5" transform="translate(294 36.84)">R<tspan class="cls-6" x="5.62" y="0">o</tspan><tspan x="11.32" y="0">te </tspan><tspan class="cls-7" x="28.17" y="0">T</tspan><tspan x="33.87" y="0">urm</tspan><tspan class="cls-6" x="50.72" y="0">s</tspan><tspan x="56.42" y="0">tra</tspan><tspan class="cls-7" x="73.27" y="0">ß</tspan><tspan x="78.97" y="0">e 1</tspan></text><text class="cls-2" transform="translate(428.88 22.32)">|<tspan class="cls-4" x="7.13" y="0"> </tspan><tspan x="14.14" y="0">G</tspan><tspan class="cls-8" x="21.27" y="0">i</tspan><tspan x="28.28" y="0">mb</tspan><tspan class="cls-4" x="42.54" y="0">s</tspan><tspan x="49.55" y="0">h</tspan><tspan class="cls-4" x="56.67" y="0">e</tspan><tspan x="63.68" y="0">im</tspan><tspan class="cls-4" x="77.94" y="0"> </tspan><tspan x="84.95" y="0">|</tspan></text><text class="cls-5" transform="translate(426.96 36.84)">S<tspan class="cls-9" x="5.62" y="0">c</tspan><tspan class="cls-10" x="11.32" y="0">hil</tspan><tspan class="cls-6" x="28.17" y="0">l</tspan><tspan class="cls-10" x="33.87" y="0">ers</tspan><tspan class="cls-9" x="50.72" y="0">t</tspan><tspan x="56.42" y="0">raß</tspan><tspan class="cls-9" x="73.27" y="0">e</tspan><tspan x="78.97" y="0" xml:space="preserve"> 35</tspan></text><text class="cls-2" transform="translate(551.28 22.32)">|<tspan class="cls-4" x="7.13" y="0"> </tspan><tspan x="14.14" y="0">B</tspan><tspan class="cls-8" x="21.27" y="0">a</tspan><tspan x="28.28" y="0">d </tspan><tspan class="cls-4" x="42.54" y="0">H</tspan><tspan x="49.55" y="0">e</tspan><tspan class="cls-4" x="56.67" y="0">r</tspan><tspan x="63.68" y="0">sf</tspan><tspan class="cls-4" x="77.94" y="0">e</tspan><tspan x="84.95" y="0">l</tspan><tspan class="cls-8" x="92.08" y="0">d</tspan><tspan x="99.09" y="0" xml:space="preserve"> |</tspan></text><text class="cls-5" transform="translate(574.08 36.84)">L<tspan class="cls-9" x="5.62" y="0">i</tspan><tspan class="cls-10" x="11.32" y="0">ngp</tspan><tspan class="cls-6" x="28.17" y="0">l</tspan><tspan class="cls-10" x="33.87" y="0">atz</tspan><tspan class="cls-9" x="50.72" y="0"> </tspan><tspan x="56.42" y="0">14</tspan></text><text class="cls-2" transform="translate(50.04 64.8)">M<tspan class="cls-3" x="7.13" y="0">o</tspan><tspan x="14.14" y="0">n</tspan><tspan class="cls-4" x="21.27" y="0">t</tspan><tspan x="28.28" y="0">ag</tspan></text><text class="cls-2" transform="translate(162.96 64.8)">1<tspan class="cls-3" x="7.13" y="0">2</tspan><tspan x="14.14" y="0">:</tspan><tspan class="cls-4" x="21.27" y="0">0</tspan><tspan x="28.28" y="0">0 </tspan><tspan class="cls-3" x="42.54" y="0">-</tspan><tspan x="49.55" y="0"> </tspan><tspan class="cls-4" x="56.67" y="0">2</tspan><tspan x="63.68" y="0">0:</tspan><tspan class="cls-3" x="77.94" y="0">0</tspan><tspan x="84.95" y="0">0</tspan></text><text class="cls-2" transform="translate(42.96 103.56)">D<tspan class="cls-3" x="7.13" y="0">i</tspan><tspan x="14.14" y="0">e</tspan><tspan class="cls-4" x="21.27" y="0">n</tspan><tspan x="28.28" y="0">st</tspan><tspan class="cls-3" x="42.54" y="0">a</tspan><tspan x="49.55" y="0">g</tspan></text><text class="cls-2" transform="translate(162.96 103.56)">1<tspan class="cls-3" x="7.13" y="0">2</tspan><tspan x="14.14" y="0">:</tspan><tspan class="cls-4" x="21.27" y="0">0</tspan><tspan x="28.28" y="0">0 </tspan><tspan class="cls-3" x="42.54" y="0">-</tspan><tspan x="49.55" y="0"> </tspan><tspan class="cls-4" x="56.67" y="0">2</tspan><tspan x="63.68" y="0">0:</tspan><tspan class="cls-3" x="77.94" y="0">0</tspan><tspan x="84.95" y="0">0</tspan></text><text class="cls-2" transform="translate(42.96 142.32)">M<tspan class="cls-3" x="7.13" y="0">i</tspan><tspan x="14.14" y="0">t</tspan><tspan class="cls-4" x="21.27" y="0">t</tspan><tspan x="28.28" y="0">wo</tspan><tspan class="cls-3" x="42.54" y="0">c</tspan><tspan x="49.55" y="0">h</tspan></text><text class="cls-2" transform="translate(295.92 142.32)">1<tspan class="cls-3" x="7.13" y="0">2</tspan><tspan x="14.14" y="0">:</tspan><tspan class="cls-4" x="21.27" y="0">0</tspan><tspan x="28.28" y="0">0 </tspan><tspan class="cls-3" x="42.54" y="0">-</tspan><tspan x="49.55" y="0"> </tspan><tspan class="cls-4" x="56.67" y="0">2</tspan><tspan x="63.68" y="0">0:</tspan><tspan class="cls-4" x="77.94" y="0">0</tspan><tspan x="84.95" y="0">0</tspan></text><text class="cls-2" transform="translate(35.88 181.08)">D<tspan class="cls-3" x="7.13" y="0">o</tspan><tspan x="14.14" y="0">n</tspan><tspan class="cls-4" x="21.27" y="0">n</tspan><tspan x="28.28" y="0">er</tspan><tspan class="cls-3" x="42.54" y="0">s</tspan><tspan x="49.55" y="0">t</tspan><tspan class="cls-4" x="56.67" y="0">a</tspan><tspan x="63.68" y="0">g</tspan></text><text class="cls-2" transform="translate(295.92 181.08)">1<tspan class="cls-3" x="7.13" y="0">2</tspan><tspan x="14.14" y="0">:</tspan><tspan class="cls-4" x="21.27" y="0">0</tspan><tspan x="28.28" y="0">0 </tspan><tspan class="cls-3" x="42.54" y="0">-</tspan><tspan x="49.55" y="0"> </tspan><tspan class="cls-4" x="56.67" y="0">2</tspan><tspan x="63.68" y="0">0:</tspan><tspan class="cls-4" x="77.94" y="0">0</tspan><tspan x="84.95" y="0">0</tspan></text><text class="cls-2" transform="translate(46.56 219.84)">F<tspan class="cls-3" x="7.13" y="0">r</tspan><tspan x="14.14" y="0">e</tspan><tspan class="cls-4" x="21.27" y="0">i</tspan><tspan x="28.28" y="0">tag</tspan></text><text class="cls-2" transform="translate(428.88 219.84)">1<tspan class="cls-4" x="7.13" y="0">2</tspan><tspan x="14.14" y="0">:</tspan><tspan class="cls-8" x="21.27" y="0">0</tspan><tspan x="28.28" y="0">0 </tspan><tspan class="cls-4" x="42.54" y="0">-</tspan><tspan x="49.55" y="0"> </tspan><tspan class="cls-4" x="56.67" y="0">2</tspan><tspan x="63.68" y="0">0:</tspan><tspan class="cls-4" x="77.94" y="0">0</tspan><tspan x="84.95" y="0">0</tspan></text><text class="cls-2" transform="translate(46.56 258.6)">S<tspan class="cls-3" x="7.13" y="0">a</tspan><tspan x="14.14" y="0">m</tspan><tspan class="cls-4" x="21.27" y="0">s</tspan><tspan x="28.28" y="0">tag</tspan></text><text class="cls-2" transform="translate(561.84 258.6)">1<tspan class="cls-4" x="7.13" y="0">2</tspan><tspan x="14.14" y="0">:</tspan><tspan class="cls-8" x="21.27" y="0">0</tspan><tspan x="28.28" y="0">0 </tspan><tspan class="cls-4" x="42.54" y="0">-</tspan><tspan x="49.55" y="0"> </tspan><tspan class="cls-4" x="56.67" y="0">2</tspan><tspan x="63.68" y="0">0:</tspan><tspan class="cls-4" x="77.94" y="0">0</tspan><tspan x="84.95" y="0">0</tspan></text><path class="cls-11" d="M541,0h.84V265.68H541ZM408,0h.84V265.68H408ZM275,0h.84V265.68H275Zm-133,0h.84V265.68h-.84Z"/><path class="cls-11" d="M0,264.84H674.4v.84H0Zm0-22.08H674.4v.84H0Zm0-16.68H674.4v.84H0ZM0,204H674.4v.84H0Zm0-16.68H674.4v.84H0Zm0-22.08H674.4v.84H0Zm0-16.68H674.4v.84H0Zm0-22.08H674.4v.84H0ZM0,109.8H674.4v.84H0ZM0,87.72H674.4v.84H0ZM0,71H674.4v.84H0ZM0,49H674.4v.84H0Z"/><path d="M31,18.13a4.55,4.55,0,0,1,4.87,1.11,10.17,10.17,0,0,0,14.19.16,4.54,4.54,0,0,1,4.67-1.2c.33.11.37,0,.42-.26a3.92,3.92,0,0,1,.8-1.58c.34-.44.67-.49,1.07-.08.81.83,1.64,1.64,2.47,2.47.41.39.33.75,0,1.11a4.37,4.37,0,0,1-1.94.91c.91,2.64-.39,4.43-2.33,6a18.84,18.84,0,0,1-13.88,4.2,19,19,0,0,1-11.65-5.42,4.35,4.35,0,0,1-1.27-4.44c.15-.55-.08-.59-.44-.65a2.89,2.89,0,0,1-1.45-.83.63.63,0,0,1,0-1c.85-.8,1.68-1.61,2.49-2.43.41-.41.73-.33,1.07.08A3.86,3.86,0,0,1,31,18.13ZM44.21,29.88a16.05,16.05,0,0,0,5.36-1.17,17.16,17.16,0,0,0,6.19-4,3,3,0,0,0,.78-3.22,3.12,3.12,0,0,0-2.43-2.23,3.54,3.54,0,0,0-3.35,1.14,10.83,10.83,0,0,1-6.92,2.95,11.26,11.26,0,0,1-8.94-3.43A3,3,0,0,0,32,19.1a3.09,3.09,0,0,0-2.46,2.21,3.32,3.32,0,0,0,1.06,3.52C34.18,28.15,38.41,29.88,44.21,29.88ZM27.78,19.06c.57.34,1.14.57,1.69.07a1.23,1.23,0,0,0,.2-1.5c-.08-.2-.18-.41-.37-.15C28.86,18,28.19,18.4,27.78,19.06Zm28.8-1.71c-.24.8-.59,1.43.07,2a1.25,1.25,0,0,0,1.68-.08C57.75,18.62,57.23,18,56.58,17.35Z"/><path class="cls-12" d="M6.41,32.57c1.22-1.58,2.43-3.17,3.65-4.75a1.5,1.5,0,0,1,2.28-.39c.29.2.2.49.2.73,0,1.87,0,3.74.08,5.62a1,1,0,0,0,.21.85c1-1.51,2-3,2.93-4.49s.91-1.43,2.56-1l.46.13c-.5.85-1,1.68-1.48,2.47-1.4,2.2-2.82,4.38-4.2,6.58a.85.85,0,0,1-1.17.41c-1.42-.44-1.45-.42-1.45-1.92,0-1.81,0-3.61,0-5.42l-.26,0c-.55.72-1.09,1.43-1.64,2.16S7.5,34.91,7,35.58C5.86,37,5.86,37,4.21,36.21c-.24-.11-.39-.23-.37-.54.21-3.65.37-7.31.78-10.94l.18,0c1.84.67,1.84.67,1.76,2.6-.08,1.73-.2,3.47-.29,5.19A1,1,0,0,1,6.41,32.57Z"/><path class="cls-12" d="M18.75,36.33a6.25,6.25,0,0,1,3.7-5.75,4.28,4.28,0,0,1,4.33.46c3.4,2.34,3,8.19-.6,10.11S18.75,40.44,18.75,36.33ZM27,35.92a3.12,3.12,0,0,0-2.85-3.27,3.46,3.46,0,0,0-3.21,3.47,3.07,3.07,0,0,0,2.93,3.17A3.23,3.23,0,0,0,27,35.92Z"/><path class="cls-12" d="M38.83,43.15c-.91,0-1.68-.1-2.46-.11-.34,0-.44-.24-.57-.49-.39-.72-.78-1.42-1.16-2.15a.82.82,0,0,0-.75-.5c-.46,0-.72,0-.7.54s-.13,1-.13,1.53-.18.8-.81.73c-1.55-.16-1.53-.13-1.35-1.69.34-2.9.68-5.81,1-8.71,0-.55.21-.65.75-.59.91.13,1.84.18,2.75.26a3.7,3.7,0,0,1,3.48,2.69,4.27,4.27,0,0,1-1.48,4.66c-.47.33-.5.55-.21,1C37.76,41.23,38.26,42.14,38.83,43.15ZM35,37.51a1.55,1.55,0,0,0,1.76-.9A1.46,1.46,0,0,0,36.65,35a3.65,3.65,0,0,0-2.69-.6c-.46.24-.16.78-.29,1.17a1.61,1.61,0,0,0-.07.49C33.56,37.53,33.2,37.38,35,37.51Z"/><path class="cls-12" d="M64.42,30.17c.42-.1.42.23.47.49.2.88.39,1.74.55,2.62.07.39.2.49.59.39q1.76-.46,3.56-.83c.52-.1.5-.36.41-.75-.23-.83-.41-1.69-.67-2.51-.15-.44,0-.55.39-.67,1.45-.44,1.45-.46,1.86,1,.8,2.83,1.56,5.68,2.39,8.51.16.54,0,.68-.46.83-1.56.42-1.55.44-2-1.12-.23-.86-.47-1.73-.67-2.59-.08-.34-.21-.42-.55-.34-1.25.31-2.52.6-3.79.88-.39.08-.44.29-.36.65.26,1.11.47,2.23.73,3.34.13.54.08.81-.59.93-1.51.24-1.5.28-1.79-1.27-.5-2.72-1-5.42-1.53-8.14-.21-1.07-.37-1,.8-1.24C64,30.27,64.21,30.22,64.42,30.17Z"/><path d="M104.06,35.8a.41.41,0,0,0-.15.07c-2,.55-2.9-.72-3.56-2.3a.85.85,0,0,0-1-.63c-.33,0-.41.13-.39.44,0,.65,0,1.3,0,2,0,.41-.08.55-.52.57C97,35.94,97,36,97,34.5c0-3,0-5.91,0-8.87,0-.54.15-.7.68-.67a17.74,17.74,0,0,0,2.28,0c3.65-.16,4.56,3,3.87,5.32a3.59,3.59,0,0,1-1.25,2c-.36.26-.33.46-.13.78C103,33.92,103.49,34.83,104.06,35.8ZM99,28.9c0,1.76.07,1.81,1.68,1.58a.93.93,0,0,0,.23-.07A1.53,1.53,0,0,0,102,28.66a1.27,1.27,0,0,0-1.33-1.25C99,27.23,99,27.23,99,28.9Z"/><path d="M137.77,25.24c-1.38,1.3-2.75,2.62-4.15,3.91-.37.34-.39.57-.07,1,1.56,1.86,3.09,3.74,4.75,5.75-.94,0-1.74,0-2.52,0-.34,0-.47-.24-.63-.44-1-1.17-1.92-2.36-2.9-3.52-.2-.24-.37-.8-.68-.6s-1,.6-1,1.27c0,.86,0,1.74,0,2.6,0,.5-.08.7-.65.7-1.35,0-1.35,0-1.35-1.37,0-3,0-5.91,0-8.87,0-.57.16-.72.72-.7,1.29,0,1.29,0,1.29,1.27V29c1.11-1.07,2.2-2.05,3.17-3.13a2.4,2.4,0,0,1,2.25-.93,13,13,0,0,0,1.6,0C137.66,25.06,137.71,25.16,137.77,25.24Z"/><path class="cls-12" d="M45.1,43.37A5,5,0,0,1,41.76,42c-.39-.39-.55-.73.11-1a1.86,1.86,0,0,0,.49-.29,1.08,1.08,0,0,1,1.48,0,3,3,0,0,0,3.37-.07,1,1,0,0,0,.54-1c-.07-.46-.44-.6-.81-.7a5.35,5.35,0,0,0-1.53-.21,4.91,4.91,0,0,1-1.61-.18,2.81,2.81,0,0,1-2.21-2.13,3.25,3.25,0,0,1,1.14-3.29,4.7,4.7,0,0,1,5.78.31c.34.33.42.59,0,.86a3.89,3.89,0,0,0-.57.46.87.87,0,0,1-1.25.16,2.52,2.52,0,0,0-2.36-.07.85.85,0,0,0-.62.86c0,.41.37.49.68.6a3.82,3.82,0,0,0,1.29.15,6,6,0,0,1,2.38.46,3.15,3.15,0,0,1,.85,5.39A5.53,5.53,0,0,1,45.1,43.37Z"/><path d="M115.18,28.9a19.38,19.38,0,0,1-.21,3.92,4.07,4.07,0,0,1-4,3.37,4,4,0,0,1-4.22-3.3,6.52,6.52,0,0,1-.24-1.68c0-1.87,0-3.74,0-5.62,0-.47.07-.65.6-.65,1.4,0,1.4,0,1.4,1.4s0,2.88,0,4.31a7.17,7.17,0,0,0,.15,1.45,2,2,0,0,0,2.1,1.64,2,2,0,0,0,2.3-1.58,5.41,5.41,0,0,0,.15-1.45c0-1.71,0-3.42,0-5.13,0-.49.1-.65.62-.65,1.4,0,1.4,0,1.4,1.4C115.18,27.13,115.18,27.91,115.18,28.9Z"/><path class="cls-12" d="M52.3,36.85a5.57,5.57,0,0,1,4-5.6A4.62,4.62,0,0,1,60,32c.28.18.37.37.15.65a2.42,2.42,0,0,0-.34.55c-.33.7-.6,1-1.51.55-2-.94-4.18,1.07-3.86,3.42A3.23,3.23,0,0,0,56.51,40a2.68,2.68,0,0,0,3.16-.83c.36-.41.57,0,.7.13.36.47,1.27.46,1.17,1.32,0,.13-.2.26-.29.37a5,5,0,0,1-8.09-.91A6.45,6.45,0,0,1,52.3,36.85Z"/><path d="M117.7,30a5.66,5.66,0,0,1,2.43-4.62,4.05,4.05,0,0,1,5.27.52c.29.29.42.52.07.85a2.43,2.43,0,0,0-.37.44c-.39.55-.67,1-1.43.29a2.16,2.16,0,0,0-2.83.24,3.73,3.73,0,0,0,0,5.37,2.3,2.3,0,0,0,3.17.1c.36-.29.55-.36.8,0l.15.2c1,1.2.94,1.42-.44,2.21a4.11,4.11,0,0,1-5.37-1.12A6.67,6.67,0,0,1,117.7,30Z"/><path class="cls-12" d="M82.05,27.19c0,.31-.16.34-.34.41-.55.21-1.11.46-1.68.63s-.6.34-.41.86c.83,2.2,1.61,4.43,2.44,6.63.21.55.15.78-.46,1-1.47.47-1.47.5-2-1-.67-2-1.35-3.94-2-5.93-.15-.47-.31-.68-.85-.44a14,14,0,0,1-1.47.49c-.13,0-.29.16-.37.11-.75-.34-.55-1.17-.85-1.74-.15-.29-.11-.54.29-.67,2.15-.67,4.26-1.42,6.35-2.23.16-.07.39-.21.5,0C81.56,26,81.81,26.61,82.05,27.19Z"/><path d="M90.7,25c1.06,0,2.12,0,3.17,0,.33,0,.46.07.47.44.13,2,.15,2-1.9,2-.63,0-.81.15-.8.78,0,2.33,0,4.66,0,7,0,.55-.11.73-.7.72-1.35,0-1.35,0-1.35-1.37,0-2.16,0-4.33,0-6.49,0-.5-.13-.7-.63-.62a.55.55,0,0,1-.16,0c-2,0-1.94,0-1.89-1.94,0-.47.2-.52.57-.5C88.58,25,89.64,25,90.7,25Z"/><path d="M46.92,12.72c0,1.55,0,3.08,0,4.62,0,.23.21.65-.34.63s-.29-.37-.29-.59c0-3.14,0-6.28,0-9.41,0-.21-.18-.57.29-.59s.34.39.34.63C46.94,9.58,46.92,11.14,46.92,12.72Z"/><path d="M39.11,10.48c0-1.51,0-3,0-4.54,0-.23-.23-.63.29-.67s.34.39.34.62c0,3.06,0,6.12,0,9.16,0,.23.21.65-.34.63s-.29-.44-.29-.67C39.09,13.5,39.11,12,39.11,10.48Z"/><path d="M43.34,16.34c0,1.22,0,2.43,0,3.65,0,.21.2.57-.29.59s-.34-.31-.34-.55V12.64c0-.23-.15-.57.34-.55s.29.37.29.59C43.36,13.9,43.34,15.12,43.34,16.34Z"/><path class="cls-13" d="M27.78,19.06a15.66,15.66,0,0,1,1.53-1.58c.2-.24.29,0,.37.15"/><path class="cls-13" d="M58.32,19.22a1.23,1.23,0,0,1-1.68.08c-.65-.54-.31-1.16-.07-2"/><path class="cls-13" d="M36.78,36.6a1.54,1.54,0,0,1-1.76.9c-1.82-.11-1.47,0-1.42-1.47a1.68,1.68,0,0,1,.07-.49c.13-.39-.16-.93.29-1.17"/><path d="M35.24,21.51a.77.77,0,0,1,.52.2,10.47,10.47,0,0,0,2.59,1.48c.36.15.73.36.55.83s-.6.41-1,.23A11,11,0,0,1,35,22.54a.59.59,0,0,1-.24-.7A.52.52,0,0,1,35.24,21.51Z"/><path d="M51.27,26.92a.52.52,0,0,1-.54-.26.5.5,0,0,1,.08-.67c.83-.59,1.68-1.14,2.52-1.69a.43.43,0,0,1,.62.2.5.5,0,0,1-.07.72,12.66,12.66,0,0,1-2.39,1.63A2.12,2.12,0,0,1,51.27,26.92Z"/><path d="M34.55,20.86c0,.46-.23.67-.59.68s-.52-.28-.54-.57a.53.53,0,0,1,.55-.57A.51.51,0,0,1,34.55,20.86Z"/><path d="M55.26,23.71a.5.5,0,0,1-.52.57.54.54,0,0,1-.59-.54c0-.34.16-.55.54-.57S55.23,23.35,55.26,23.71Z"/></svg>