<?xml version="1.0" encoding="utf-8"?>
<!-- Generator: Adobe Illustrator 21.1.0, SVG Export Plug-In . SVG Version: 6.00 Build 0)  -->
<svg version="1.1" id="Ebene_1" xmlns="http://www.w3.org/2000/svg" xmlns:xlink="http://www.w3.org/1999/xlink" x="0px" y="0px"
	 viewBox="0 0 981 339" style="enable-background:new 0 0 981 339;" xml:space="preserve">
<style type="text/css">
	.st0{fill:#FFFFFF;}
	.st1{fill:#FE7A05;}
	.st2{fill:#FEFEFE;}
</style>
<g>
	<path class="st0" d="M187.3,163c11.4-3.6,21.3-1.5,29.9,6.8c24.8,23.9,61,24.4,87.2,1c8.5-7.5,17.7-11,28.7-7.4
		c2,0.7,2.3-0.1,2.6-1.6c0.7-3.7,2.7-6.7,4.9-9.7c2.1-2.7,4.1-3,6.6-0.5c5,5.1,10.1,10.1,15.2,15.2c2.5,2.4,2,4.6-0.3,6.8
		c-3.2,3.1-7.4,4.3-11.9,5.6c5.6,16.2-2.4,27.2-14.3,36.7c-25,20-53.5,28.6-85.3,25.8c-27.7-2.5-51.5-14.1-71.6-33.3
		c-7.8-7.5-10.5-16.9-7.8-27.3c0.9-3.4-0.5-3.6-2.7-4c-3.6-0.7-6.4-2.7-8.9-5.1c-2.2-2.1-2.2-4.2,0.1-6.4
		c5.2-4.9,10.3-9.9,15.3-14.9c2.5-2.5,4.5-2,6.6,0.5C184.8,154.6,186.4,158.7,187.3,163z M268.3,235.2c7.8,0.2,20.5-2.5,32.9-7.2
		c14.4-5.5,27.2-13.7,38-24.7c5.4-5.5,7.3-12.3,4.8-19.8c-2.4-7.2-7.1-12-14.9-13.7c-8.5-1.9-14.8,1.6-20.6,7
		c-12,11.2-26.3,17.1-42.5,18.1c-21.4,1.3-39.6-6-54.9-21.1c-5-4.9-11.1-6.3-17.8-4.8c-7.5,1.7-12.9,6.1-15.1,13.6
		c-2.4,8.5,0.2,15.7,6.5,21.6C206.7,224.6,232.7,235.2,268.3,235.2z M167.4,168.7c3.5,2.1,7,3.5,10.4,0.4c2.8-2.6,2.6-5.9,1.2-9.2
		c-0.5-1.2-1.1-2.5-2.3-0.9C174,162.5,169.9,164.7,167.4,168.7z M344.3,158.2c-1.5,4.9-3.6,8.8,0.4,12c3.5,2.8,6.9,2,10.3-0.5
		C351.5,166,348.3,162.5,344.3,158.2z"/>
	<path class="st1" d="M36.1,251.7c7.5-9.7,14.9-19.5,22.4-29.2c3.9-5.2,8.6-6,14-2.4c1.8,1.2,1.2,3,1.2,4.5
		c0.2,11.5,0.3,23,0.5,34.5c0,1.6-0.5,3.3,1.3,5.2c6.1-9.3,12.1-18.4,18-27.6c5.7-8.8,5.6-8.8,15.7-5.9c0.8,0.2,1.6,0.4,2.8,0.8
		c-3.1,5.2-6,10.3-9.1,15.2c-8.6,13.5-17.3,26.9-25.8,40.4c-2,3.2-3.9,3.5-7.2,2.5c-8.7-2.7-8.9-2.6-8.9-11.8
		c-0.1-11.1,0-22.2,0-33.3c-0.5-0.1-1.1-0.2-1.6-0.3c-3.4,4.4-6.7,8.8-10.1,13.3c-3.2,4.2-6.5,8.5-9.8,12.6
		c-6.8,8.6-6.8,8.6-16.9,3.9c-1.5-0.7-2.4-1.4-2.3-3.3c1.3-22.4,2.3-44.9,4.8-67.2c0.6-0.1,0.9-0.2,1.1-0.2
		c11.3,4.1,11.3,4.1,10.8,16c-0.5,10.6-1.2,21.3-1.8,31.9C35.4,251.4,35.8,251.5,36.1,251.7z"/>
	<path class="st1" d="M111.9,274.8c0-15.4,9.2-29.7,22.7-35.3c9.3-3.9,18.3-3,26.6,2.8c20.9,14.4,18.7,50.3-3.7,62.1
		C136,315.8,111.9,300.1,111.9,274.8z M162.4,272.3c0-10.9-7.8-19.9-17.5-20.1c-10.2-0.2-19.6,10-19.7,21.3
		c-0.1,10.6,8,19.4,18,19.5C153.8,293.1,162.4,283.9,162.4,272.3z"/>
	<path class="st1" d="M235.3,316.7c-5.6-0.3-10.3-0.6-15.1-0.7c-2.1,0-2.7-1.5-3.5-3c-2.4-4.4-4.8-8.7-7.1-13.2
		c-1-2-2.3-2.9-4.6-3.1c-2.8-0.3-4.4-0.1-4.3,3.3c0,3.1-0.8,6.3-0.8,9.4c0,3.6-1.1,4.9-5,4.5c-9.5-1-9.4-0.8-8.3-10.4
		c2.1-17.8,4.2-35.7,6-53.5c0.3-3.4,1.3-4,4.6-3.6c5.6,0.8,11.3,1.1,16.9,1.6c11.1,1.1,18.7,6.9,21.4,16.5
		c3.1,10.7-0.5,22.6-9.1,28.6c-2.9,2-3.1,3.4-1.3,6.2C228.7,304.9,231.8,310.5,235.3,316.7z M211.9,282.1c4.2,0.5,8.6-0.5,10.8-5.5
		c1.5-3.3,1.7-6.8-0.8-9.9c-2.1-2.6-13.4-5.4-16.5-3.7c-2.8,1.5-1,4.8-1.8,7.2c-0.3,0.9-0.4,2-0.4,3
		C202.9,282.2,200.7,281.3,211.9,282.1z"/>
	<path class="st1" d="M392.5,237c2.6-0.6,2.6,1.4,2.9,3c1.2,5.4,2.4,10.7,3.4,16.1c0.4,2.4,1.2,3,3.6,2.4c7.2-1.9,14.5-3.6,21.9-5.1
		c3.2-0.6,3.1-2.2,2.5-4.6c-1.4-5.1-2.5-10.4-4.1-15.4c-0.9-2.7,0.2-3.4,2.4-4.1c8.9-2.7,8.9-2.8,11.4,6
		c4.9,17.4,9.6,34.9,14.7,52.3c1,3.3,0.2,4.2-2.8,5.1c-9.6,2.6-9.5,2.7-12.1-6.9c-1.4-5.3-2.9-10.6-4.1-15.9
		c-0.5-2.1-1.3-2.6-3.4-2.1c-7.7,1.9-15.5,3.7-23.3,5.4c-2.4,0.5-2.7,1.8-2.2,4c1.6,6.8,2.9,13.7,4.5,20.5c0.8,3.3,0.5,5-3.6,5.7
		c-9.3,1.5-9.2,1.7-11-7.8c-3.1-16.7-6.3-33.3-9.4-50c-1.3-6.6-2.3-6.3,4.9-7.6C389.9,237.6,391.2,237.3,392.5,237z"/>
	<path class="st0" d="M636,271.6c-0.6,0.2-0.8,0.3-0.9,0.4c-12.5,3.4-17.8-4.4-21.9-14.1c-1.1-2.8-2.7-4.2-6-3.9
		c-2,0.2-2.5,0.8-2.4,2.7c0.1,4-0.1,8,0.1,12c0.1,2.5-0.5,3.4-3.2,3.5c-9.1,0.2-9.1,0.3-9.1-8.6c0-18.2,0.1-36.3-0.1-54.5
		c0-3.3,0.9-4.3,4.2-4.1c4.6,0.3,9.3,0.3,14,0c22.4-1,28,18.4,23.8,32.7c-1.4,4.8-3.7,9-7.7,12c-2.2,1.6-2,2.8-0.8,4.8
		C629.4,260,632.5,265.6,636,271.6z M604.8,229.2c0,10.8,0.4,11.1,10.3,9.7c0.5-0.1,1-0.2,1.4-0.4c4.8-1.4,7.2-5.2,6.8-10.8
		c-0.3-4.6-3-7.2-8.2-7.7C604.8,218.9,604.8,218.9,604.8,229.2z"/>
	<path class="st0" d="M843.1,206.7c-8.5,8-16.9,16.1-25.5,24c-2.3,2.1-2.4,3.5-0.4,6c9.6,11.4,19,23,29.2,35.3
		c-5.8,0-10.7-0.1-15.5,0c-2.1,0.1-2.9-1.5-3.9-2.7c-5.9-7.2-11.8-14.5-17.8-21.6c-1.2-1.5-2.3-4.9-4.2-3.7
		c-2.7,1.7-6.1,3.7-6.2,7.8c0,5.3-0.2,10.7,0.1,16c0.1,3.1-0.5,4.3-4,4.3c-8.3-0.2-8.3,0.1-8.3-8.4c0-18.2,0.1-36.3-0.1-54.5
		c0-3.5,1-4.4,4.4-4.3c7.9,0.2,7.9,0,7.9,7.8c0,5.6,0,11.2,0,17.1c6.8-6.6,13.5-12.6,19.5-19.2c3.9-4.4,8.1-6.4,13.8-5.7
		c3.2,0.4,6.6,0.1,9.8,0.1C842.4,205.6,842.7,206.2,843.1,206.7z"/>
	<path class="st1" d="M273.8,318.1c-6.4-0.2-14.1-2.5-20.5-8.7c-2.4-2.4-3.4-4.5,0.7-6.2c1.1-0.4,2.1-1.1,3-1.8
		c3-2.4,5.4-2.5,9.1-0.1c6.6,4.3,13.9,3.9,20.7-0.4c2.2-1.4,3.7-3.4,3.3-6.2c-0.4-2.8-2.7-3.7-5-4.3c-3-0.9-6.2-1.3-9.4-1.3
		c-3.3,0.1-6.7-0.1-9.9-1.1c-6.7-2.1-12.3-5.8-13.6-13.1c-1.4-7.8,0.5-14.9,7-20.2c9.4-7.7,26.8-6.7,35.5,1.9c2.1,2,2.6,3.6-0.3,5.3
		c-1.3,0.8-2.4,1.8-3.5,2.8c-2.3,2.1-4.2,3.2-7.7,1c-4.4-2.7-9.6-2.5-14.5-0.4c-2.2,0.9-4,2.5-3.8,5.3c0.2,2.5,2.3,3,4.2,3.7
		c2.6,0.9,5.2,0.9,7.9,0.9c5,0,9.9,0.8,14.6,2.8c14,6.1,16.6,23,5.2,33.1C291.6,315.6,284.1,318.1,273.8,318.1z"/>
	<path class="st0" d="M704.3,229.2c-0.4,7.2,0.8,15.7-1.3,24.1c-3.2,12.9-12.2,20.5-24.7,20.7c-13.4,0.2-22.3-6.9-25.9-20.3
		c-0.9-3.4-1.5-6.8-1.5-10.3c0-11.5,0.1-23-0.1-34.5c0-2.9,0.4-4,3.7-4c8.6,0.1,8.6-0.1,8.6,8.6c0,8.8-0.1,17.7,0,26.5
		c0,3,0.3,6,0.9,8.9c1.4,6.6,5.8,10,12.9,10.1c8,0.2,12.2-2.7,14.1-9.7c0.8-2.9,0.9-5.9,0.9-8.9c0-10.5,0.1-21-0.1-31.5
		c-0.1-3,0.6-4,3.8-4c8.6,0.1,8.6-0.1,8.6,8.6C704.3,218.3,704.3,223.1,704.3,229.2z"/>
	<path class="st1" d="M318,278c0.1-16.8,10-30.9,24.3-34.4c8.4-2,16.1,0.1,23.2,4.9c1.7,1.1,2.3,2.3,0.9,4c-0.8,1-1.6,2.2-2.1,3.4
		c-2,4.3-3.7,6.1-9.3,3.4c-12.1-5.8-25.7,6.6-23.7,21c1.1,8,4.9,14.2,12.6,17.2c7.5,2.8,14.1,0.9,19.4-5.1c2.2-2.5,3.5-0.3,4.3,0.8
		c2.2,2.9,7.8,2.8,7.2,8.1c-0.1,0.8-1.2,1.6-1.8,2.3c-14.1,15.6-39,12.8-49.7-5.6C319.8,292.1,318,285,318,278z"/>
	<path class="st0" d="M719.8,236c0.3-9.9,4.1-20.9,14.9-28.4c10.4-7.2,23.4-5.7,32.4,3.2c1.8,1.8,2.6,3.2,0.4,5.2
		c-0.9,0.8-1.6,1.7-2.3,2.7c-2.4,3.4-4.1,6-8.8,1.8c-4.9-4.3-12.2-3-17.4,1.5c-9.4,8.1-9.5,24.8-0.2,33c5.9,5.3,13.4,5.7,19.5,0.6
		c2.2-1.8,3.4-2.2,4.9,0.3c0.3,0.4,0.6,0.8,0.9,1.2c6.1,7.4,5.8,8.7-2.7,13.6c-11.2,6.4-24.4,3.7-33-6.9
		C722.4,256.4,719.8,248,719.8,236z"/>
	<path class="st1" d="M500.8,218.7c0.3,1.9-1,2.1-2.1,2.5c-3.4,1.3-6.8,2.8-10.3,3.9c-3,0.9-3.7,2.1-2.5,5.3
		c5.1,13.5,9.9,27.2,15,40.7c1.3,3.4,0.9,4.8-2.8,6c-9,2.9-9,3.1-12.1-5.9c-4.1-12.1-8.3-24.2-12.3-36.4c-0.9-2.9-1.9-4.2-5.2-2.7
		c-2.8,1.3-6,2-9,3c-0.8,0.3-1.8,1-2.3,0.7c-4.6-2.1-3.4-7.2-5.2-10.7c-0.9-1.8-0.7-3.3,1.8-4.1c13.2-4.1,26.2-8.7,39-13.7
		c1-0.4,2.4-1.3,3.1,0.2C497.8,211.2,499.3,215.1,500.8,218.7z"/>
	<path class="st0" d="M553.9,205c6.5,0,13,0.1,19.5,0c2,0,2.8,0.4,2.9,2.7c0.8,12.4,0.9,12.5-11.7,12.3c-3.9-0.1-5,0.9-4.9,4.8
		c0.3,14.3,0,28.6,0.2,42.9c0,3.4-0.7,4.5-4.3,4.4c-8.3-0.2-8.3,0-8.3-8.4c0-13.3-0.1-26.6,0.1-39.9c0-3.1-0.8-4.3-3.9-3.8
		c-0.3,0.1-0.7,0-1,0c-12.1,0-11.9,0-11.6-11.9c0.1-2.9,1.2-3.2,3.5-3.1C540.9,205.1,547.4,205,553.9,205z"/>
	<path class="st0" d="M285,129.8c0,9.5,0.1,18.9-0.1,28.4c0,1.4,1.3,4-2.1,3.9c-3-0.1-1.8-2.3-1.8-3.6c-0.1-19.3-0.1-38.6,0-57.8
		c0-1.3-1.1-3.5,1.8-3.6c3.4-0.1,2.1,2.4,2.1,3.9C285.1,110.5,285,120.1,285,129.8z"/>
	<path class="st0" d="M237,116c0-9.3-0.1-18.6,0.1-27.9c0-1.4-1.4-3.9,1.8-4.1c3.4-0.2,2.1,2.4,2.1,3.8c0.1,18.8,0.1,37.6,0,56.3
		c0,1.4,1.3,4-2.1,3.9c-3.3-0.1-1.8-2.7-1.8-4.1C236.9,134.6,237,125.3,237,116z"/>
	<path class="st0" d="M263,152c0,7.5,0.1,14.9-0.1,22.4c0,1.3,1.2,3.5-1.8,3.6c-2.9,0.1-2.1-1.9-2.1-3.4c0-15.1,0-30.2,0-45.3
		c0-1.4-0.9-3.5,2.1-3.4c3,0.1,1.8,2.3,1.8,3.6C263.1,137,263,144.5,263,152z"/>
	<path class="st2" d="M167.4,168.7c2.5-4,6.6-6.3,9.4-9.7c1.2-1.5,1.8-0.3,2.3,0.9"/>
	<path class="st2" d="M355,169.7c-3.4,2.5-6.9,3.4-10.3,0.5c-4-3.3-1.9-7.1-0.4-12"/>
	<path class="st0" d="M213.2,183.8c1.3-0.1,2.2,0.5,3.2,1.2c4.8,3.8,10.2,6.8,15.9,9.1c2.2,0.9,4.5,2.2,3.4,5.1
		c-1.2,3.1-3.7,2.5-6.2,1.4c-6.4-2.7-12.5-5.9-17.9-10.5c-1.5-1.3-2.1-2.5-1.5-4.3C210.6,184.4,211.8,183.9,213.2,183.8z"/>
	<path class="st0" d="M311.7,217c-1.8,0.1-2.7-0.6-3.3-1.6c-0.8-1.4-0.8-3.1,0.5-4.1c5.1-3.6,10.3-7,15.5-10.4
		c1.4-0.9,2.9-0.3,3.8,1.2c1,1.6,1.1,3.1-0.4,4.4c-4.5,3.9-9.4,7.2-14.7,10C312.5,216.8,311.9,216.9,311.7,217z"/>
	<path class="st0" d="M209,179.8c0,2.8-1.4,4.1-3.6,4.2c-2.2,0.1-3.2-1.7-3.3-3.5c0-2,1.2-3.4,3.4-3.5
		C207.7,176.9,208.7,178.2,209,179.8z"/>
	<path class="st0" d="M336.2,197.3c0.1,2.1-1.1,3.4-3.2,3.5c-2.2,0.1-3.4-1.4-3.6-3.3c-0.2-2.1,1-3.4,3.3-3.5
		C334.9,193.9,336,195.1,336.2,197.3z"/>
</g>
</svg>
